<?xml version="1.0" encoding="UTF-8" standalone="no"?>
<svg
   width="1000"
   height="1000"
   viewBox="0 0 1000 1000"
   version="1.1"
   id="svg54"
   xmlns="http://www.w3.org/2000/svg"
   xmlns:svg="http://www.w3.org/2000/svg">
  <defs
     id="defs27">
    <linearGradient
       id="gold"
       x1="0"
       y1="0"
       x2="1"
       y2="1">
      <stop
         offset="0"
         stop-color="#8E5B12"
         id="stop2" />
      <stop
         offset="0.28"
         stop-color="#F7D47A"
         id="stop4" />
      <stop
         offset="0.58"
         stop-color="#C8922F"
         id="stop6" />
      <stop
         offset="1"
         stop-color="#6E430A"
         id="stop8" />
    </linearGradient>
    <linearGradient
       id="silver"
       x1="0"
       y1="0"
       x2="0"
       y2="1">
      <stop
         offset="0"
         stop-color="#FFFFFF"
         id="stop11" />
      <stop
         offset="0.38"
         stop-color="#DDE1E5"
         id="stop13" />
      <stop
         offset="0.7"
         stop-color="#949BA2"
         id="stop15" />
      <stop
         offset="1"
         stop-color="#F2F4F5"
         id="stop17" />
    </linearGradient>
    <radialGradient
       id="disc"
       cx="42%"
       cy="32%"
       r="72%">
      <stop
         offset="0"
         stop-color="#242424"
         id="stop20" />
      <stop
         offset="0.62"
         stop-color="#111111"
         id="stop22" />
      <stop
         offset="1"
         stop-color="#050505"
         id="stop24" />
    </radialGradient>
  </defs>
  <g
     id="badge"
     transform="translate(-200,220)">
    <path
       id="circle29"
       style="fill:url(#disc);stroke:url(#gold);stroke-width:9"
       d="M 916,280 A 216,216 0 0 1 700,496 216,216 0 0 1 484,280 216,216 0 0 1 700,64 216,216 0 0 1 916,280 Z" />
    <path
       id="circle31"
       style="fill:none;stroke:#4b4b4b;stroke-width:3"
       d="M 899,280 A 199,199 0 0 1 700,479 199,199 0 0 1 501,280 199,199 0 0 1 700,81 199,199 0 0 1 899,280 Z" />
    <path
       d="M 555,242 700,112 845,242"
       fill="none"
       stroke="url(#gold)"
       stroke-width="34"
       stroke-linecap="round"
       stroke-linejoin="round"
       id="path33" />
    <path
       d="m 555,240 v 44 m 290,-44 v 44"
       fill="none"
       stroke="url(#gold)"
       stroke-width="26"
       stroke-linecap="round"
       id="path35" />
    <g
       stroke="#151515"
       stroke-width="8"
       stroke-linejoin="round"
       id="g45">
      <path
         id="rect37"
         transform="rotate(45,700,242)"
         style="fill:url(#gold)"
         d="m 664,203 h 72 c 1.662,0 3,1.338 3,3 v 72 c 0,1.662 -1.338,3 -3,3 h -72 c -1.662,0 -3,-1.338 -3,-3 v -72 c 0,-1.662 1.338,-3 3,-3 z" />
      <path
         id="rect39"
         transform="rotate(45,645,297)"
         style="fill:url(#gold)"
         d="m 609,258 h 72 c 1.662,0 3,1.338 3,3 v 72 c 0,1.662 -1.338,3 -3,3 h -72 c -1.662,0 -3,-1.338 -3,-3 v -72 c 0,-1.662 1.338,-3 3,-3 z" />
      <path
         id="rect41"
         transform="rotate(45,755,297)"
         style="fill:url(#gold)"
         d="m 719,258 h 72 c 1.662,0 3,1.338 3,3 v 72 c 0,1.662 -1.338,3 -3,3 h -72 c -1.662,0 -3,-1.338 -3,-3 v -72 c 0,-1.662 1.338,-3 3,-3 z" />
      <path
         id="rect43"
         transform="rotate(45,700,352)"
         style="fill:url(#gold)"
         d="m 664,313 h 72 c 1.662,0 3,1.338 3,3 v 72 c 0,1.662 -1.338,3 -3,3 h -72 c -1.662,0 -3,-1.338 -3,-3 v -72 c 0,-1.662 1.338,-3 3,-3 z" />
    </g>
    <path
       d="m 546,352 c 15,90 74,126 154,126 78,0 131,-34 151,-106"
       fill="none"
       stroke="url(#silver)"
       stroke-width="39"
       stroke-linecap="round"
       id="path47" />
    <path
       d="m 837,350 39,-24 29,20 -26,26 21,25 -38,22 -29,-35 z"
       fill="url(#silver)"
       id="path49" />
    <path
       d="m 531,334 h 39 v 50 h -35"
       fill="url(#gold)"
       id="path51" />
  </g>
</svg>
